<?xml version="1.0" encoding="UTF-8"?>
<svg width="700px" height="452px" viewBox="0 0 700 452" version="1.1" xmlns="http://www.w3.org/2000/svg" xmlns:xlink="http://www.w3.org/1999/xlink">
    <!-- Generator: Sketch 59.1 (86144) - https://sketch.com -->
    <title>animation-lg</title>
    <desc>Created with Sketch.</desc>
    <defs>
        <path d="M0,0 L125,0 L125,144 C125,146.761424 122.761424,149 120,149 L5,149 C2.23857625,149 3.38176876e-16,146.761424 0,144 L0,0 L0,0 Z" id="path-1"></path>
        <filter x="-9.2%" y="-6.4%" width="118.4%" height="115.4%" filterUnits="objectBoundingBox" id="filter-2">
            <feOffset dx="0" dy="2" in="SourceAlpha" result="shadowOffsetOuter1"></feOffset>
            <feGaussianBlur stdDeviation="3.5" in="shadowOffsetOuter1" result="shadowBlurOuter1"></feGaussianBlur>
            <feColorMatrix values="0 0 0 0 0.529196093   0 0 0 0 0.58447441   0 0 0 0 0.719599185  0 0 0 0.0991313374 0" type="matrix" in="shadowBlurOuter1"></feColorMatrix>
        </filter>
    </defs>
    <g id="Page-1" stroke="none" stroke-width="1" fill="none" fill-rule="evenodd">
        <g id="animation-lg">
            <path d="M0,34 L700,34 L700,447 C700,449.761424 697.761424,452 695,452 L5,452 C2.23857625,452 3.38176876e-16,449.761424 0,447 L0,34 L0,34 Z" id="Rectangle-4" fill="#E3EBFF"></path>
            <rect id="Rectangle" fill="#EEF3FF" x="64" y="160" width="572" height="292"></rect>
            <polygon id="Rectangle" fill="#C5C5C5" points="410 192.181286 435.380584 168 461 192.181286 448.173702 192.475752 448.173702 202 421.922747 202 421.922747 192.181286"></polygon>
            <path d="M5,0 L695,0 C697.761424,-5.07265313e-16 700,2.23857625 700,5 L700,34 L700,34 L0,34 L0,5 C-3.38176876e-16,2.23857625 2.23857625,5.07265313e-16 5,0 Z" id="Rectangle" fill="#737373"></path>
            <g id="Group-5" transform="translate(17.000000, 12.000000)" fill="#C7C7C7">
                <path d="M4.98484848,0 C7.73790428,0 9.96969697,2.23857625 9.96969697,5 C9.96969697,7.76142375 7.73790428,10 4.98484848,10 C2.23179269,10 0,7.76142375 0,5 C0,2.23857625 2.23179269,0 4.98484848,0 Z M23.5,0 C26.2530558,0 28.4848485,2.23857625 28.4848485,5 C28.4848485,7.76142375 26.2530558,10 23.5,10 C20.7469442,10 18.5151515,7.76142375 18.5151515,5 C18.5151515,2.23857625 20.7469442,0 23.5,0 Z M42.0151515,0 C44.7682073,0 47,2.23857625 47,5 C47,7.76142375 44.7682073,10 42.0151515,10 C39.2620957,10 37.030303,7.76142375 37.030303,5 C37.030303,2.23857625 39.2620957,0 42.0151515,0 Z" id="Combined-Shape"></path>
            </g>
            <g id="Group-3" transform="translate(64.000000, 108.000000)">
                <rect id="Rectangle-3" fill="#428EF7" x="0" y="0" width="572" height="52"></rect>
                <g id="Group-9" transform="translate(30.000000, 18.000000)">
                    <rect id="Rectangle-6-Copy-2" fill="#9EC7FF" x="82" y="0" width="46" height="16" rx="4"></rect>
                    <rect id="Rectangle-6-Copy-4" fill="#9EC7FF" x="236" y="0" width="50" height="16" rx="4"></rect>
                    <rect id="Rectangle-6-Copy" fill="#9EC7FF" x="0" y="0" width="50" height="16" rx="4"></rect>
                    <rect id="Rectangle-6-Copy-3" fill="#9EC7FF" x="158" y="0" width="46" height="16" rx="4"></rect>
                    <rect id="Rectangle-6-Copy-5" fill="#E0EDFF" x="318" y="0" width="50" height="16" rx="4"></rect>
                    <path d="M392.980357,38.550266 L384.114607,29.684216 L390.439657,26.030816 C390.933907,25.745366 391.221457,25.202816 391.180357,24.633566 C391.139257,24.064166 390.776557,23.568416 390.246457,23.357066 L362.041807,12.106166 C361.488907,11.885366 360.857557,12.015416 360.436507,12.436316 C360.015457,12.857516 359.885407,13.488716 360.106057,14.041616 L371.355157,42.249566 C371.566657,42.779666 372.062407,43.142516 372.631807,43.183616 C373.201207,43.225016 373.743907,42.937316 374.029207,42.442916 L377.682307,36.117866 L386.547457,44.983916 C386.826757,45.263366 387.205957,45.420416 387.600907,45.420416 C387.996157,45.420416 388.375057,45.263366 388.654357,44.983916 L392.980507,40.657166 C393.562207,40.075316 393.562207,39.132116 392.980357,38.550266 Z" id="Path" stroke="#FFFFFF" fill="#000000" fill-rule="nonzero"></path>
                </g>
            </g>
            <g id="Group-6" transform="translate(390.000000, 208.000000)">
                <g id="Group-7">
                    <g id="Group-2">
                        <g id="Rectangle-7">
                            <use fill="black" fill-opacity="1" filter="url(#filter-2)" xlink:href="#path-1"></use>
                            <use fill="#6EABFF" fill-rule="evenodd" xlink:href="#path-1"></use>
                        </g>
                        <path d="M83,121 C84.1045695,121 85,121.895431 85,123 L85,128 C85,129.104569 84.1045695,130 83,130 L17,130 C15.8954305,130 15,129.104569 15,128 L15,123 C15,121.895431 15.8954305,121 17,121 L83,121 Z M98,95 C99.1045695,95 100,95.8954305 100,97 L100,102 C100,103.104569 99.1045695,104 98,104 L17,104 C15.8954305,104 15,103.104569 15,102 L15,97 C15,95.8954305 15.8954305,95 17,95 L98,95 Z M107,71 C108.104569,71 109,71.8954305 109,73 L109,78 C109,79.1045695 108.104569,80 107,80 L17,80 C15.8954305,80 15,79.1045695 15,78 L15,73 C15,71.8954305 15.8954305,71 17,71 L107,71 Z M107,45 C108.104569,45 109,45.8954305 109,47 L109,52 C109,53.1045695 108.104569,54 107,54 L17,54 C15.8954305,54 15,53.1045695 15,52 L15,47 C15,45.8954305 15.8954305,45 17,45 L107,45 Z M107,19 C108.104569,19 109,19.8954305 109,21 L109,26 C109,27.1045695 108.104569,28 107,28 L17,28 C15.8954305,28 15,27.1045695 15,26 L15,21 C15,19.8954305 15.8954305,19 17,19 L107,19 Z" id="Combined-Shape" fill="#D5E7FF" opacity="0.553455171"></path>
                    </g>
                </g>
            </g>
        </g>
    </g>
</svg>